<svg xmlns="http://www.w3.org/2000/svg" viewBox="0 0 800 800">
  <defs>
    <linearGradient x1="50%" y1="0%" x2="50%" y2="100%" id="a">
      <stop stop-color="hsl(206, 75%, 49%)" offset="0%"/>
      <stop stop-color="hsl(331, 90%, 56%)" offset="100%"/>
    </linearGradient>
  </defs>
  <g stroke-width="2" stroke="url(#a)" fill="none" stroke-linecap="round">
    <path d="M373.5 67.67c10.6 5.85 20.98 11.93 31.12 17.28a89.56 89.56 0 0 0 29.76 4.81c9.73-2.04 19.28-4.68 28.66-7.07 9.49-1.89 18.89-1.94 28.25.3 9.55 4.31 19.16 11.06 28.87 19.88 10.02 10.06 20.26 21.03 30.74 32.22a343.03 343.03 0 0 0 33.66 28.94 247.2 247.2 0 0 0 36.82 17.58c12.85 3.56 25.83 6.77 38.79 10.01a290.63 290.63 0 0 1 37.71 11.36 150.75 150.75 0 0 1 31.92 19.05 107.23 107.23 0 0 1 20.81 27.76 97.34 97.34 0 0 1 5.71 33.93 137.48 137.48 0 0 1-10.02 36.65 273.35 273.35 0 0 1-21.75 36.65 947.23 947.23 0 0 1-25.41 34.84 516.15 516.15 0 0 0-19.31 31.11c-3.71 9.55-6.15 18.29-7.37 26.26a90.63 90.63 0 0 0 3.97 22.29c3.25 7.19 6.76 14.24 10.24 21.44a145.3 145.3 0 0 1 9.64 26.52c2.21 11.2 3.28 23.91 3.11 38.29-.89 15.83-3.16 33.11-6.8 51.41a361.24 361.24 0 0 1-17.26 53.38c-7.72 14.43-16.48 25.64-26.11 32.69-10.15 2.96-20.97 1.35-32.33-4.44-11.63-8.07-23.62-17.78-35.83-27.25-12.32-6.47-24.75-8.98-37.2-6.1-12.45 9.2-24.86 23.93-37.17 42.89-12.27 21.06-24.43 41.31-36.43 57.7-11.96 10.34-23.78 12.64-35.43 6.36-11.63-13.05-23.12-31.23-34.45-51.16-11.34-17.18-22.28-28.86-32.82-33.22-10.58 3.84-20.8 14.22-30.66 28.76-9.92 16.53-19.51 31.14-28.78 41.15-9.37 4.28-18.44 1.28-27.24-8.61-8.92-15.31-17.61-34.5-26.06-55.3-8.61-20.32-17.04-38.34-25.27-52.78-8.43-10.04-16.69-15.75-24.79-17.71-8.31 1.55-16.47 4.93-24.44 8.89-8.17 4.37-16.14 7.3-23.89 8.12-7.87-.91-15.46-4.58-22.74-10.87-7.31-8.3-14.23-18.74-20.72-30.82a470.57 470.57 0 0 1-17.67-42.09c-5.19-15-9.78-29.92-13.72-44.49a558.64 558.64 0 0 1-9.16-42.04 388.57 388.57 0 0 1-4.31-38.29c-.54-12.13-.38-23.75.48-34.87a229.63 229.63 0 0 1 4.86-31.19 193.54 193.54 0 0 1 8.35-27.09 180.25 180.25 0 0 1 10.92-23.48c3.88-7.45 8.1-14.5 12.61-21.3 4.3-7.27 8.86-14.58 13.66-22.12 4.55-8.38 9.35-17.3 14.38-26.93a4859.3 4859.3 0 0 0 15.2-34.03 1032.4 1032.4 0 0 1 16.48-38.19c5.73-12.21 11.84-23.42 18.31-33.13 6.48-8.14 13.37-14.24 20.65-18.18 7.34-2.4 15.09-3.13 23.24-2.69 8.22.37 16.83.57 25.78-.07 9.04-2.53 18.4-6.67 28.04-12.42 9.7-7.44 19.65-15.53 29.79-23.39 10.18-7.15 20.52-12.33 30.98-14.85 10.47-.1 21.02 2.61 31.62 7.65" stroke-dasharray="3 2" opacity=".05"/>
    <path d="M391.09 74.5c9.96 6.45 19.73 13.15 29.35 19.15a89.4 89.4 0 0 0 28.97 7.11c9.74-1.3 19.38-3.3 28.9-5.25 9.61-1.65 19.09-1.67 28.44.43 9.44 4.05 18.81 10.54 28.2 19.17 9.6 10.07 19.35 21.3 29.3 33.04a457.9 457.9 0 0 0 32.05 32.36 266.01 266.01 0 0 0 35.3 22.28 687.4 687.4 0 0 0 37.1 13.62 367.09 367.09 0 0 1 35.43 12.46 138 138 0 0 1 28.95 17.7 84.33 84.33 0 0 1 17.55 24.91 80.76 80.76 0 0 1 2.78 30.49c-2.29 10.92-6.38 22.02-12.13 33.12a278.99 278.99 0 0 1-23.04 33.24 994.76 994.76 0 0 1-26.32 31.84 500.92 500.92 0 0 0-20.5 29.05c-4.28 9.14-7.33 17.71-9.21 25.77-.34 8.24.27 16.14 1.6 23.84 2.4 8.17 5.07 16.48 7.74 25.18 3 9.6 5.53 20.04 7.3 31.58 1.48 12.8 1.86 26.92 1.03 42.39a376.1 376.1 0 0 1-8.5 51.42c-4.87 17.19-10.95 33.35-18.09 47.53-7.67 11.5-16.17 19.48-25.31 23.3-9.43.1-19.35-3.89-29.63-11.35-10.49-8.9-21.35-18.59-32.53-27.32-11.52-5.3-23.44-6.41-35.73-2.26-12.64 9.99-25.57 24.88-38.65 43.26-13.12 19.76-26.1 38.21-38.7 52.57-12.22 8.4-23.9 9.1-34.95 1.76-10.67-13.6-20.95-31.88-31-51.77-10.18-17.29-20.27-29.44-30.39-34.74-10.58 2.43-21.17 11.19-31.66 24.16-10.68 15.29-20.97 29.24-30.74 39.33-9.56 5.06-18.47 3.39-26.74-4.89-8.08-13.73-15.7-31.72-22.95-51.95-7.4-20.57-14.72-39.67-22-55.94-7.69-12.52-15.45-21.03-23.27-25.8-8.22-1.15-16.41.01-24.5 2.4-8.32 3.41-16.4 6.14-24.19 7.42-7.8.13-15.21-2.06-22.16-6.61-6.86-6.34-13.23-14.84-19.04-25.1a312.76 312.76 0 0 1-15.27-37.68c-4.31-13.99-8-28.16-11.08-42.22a505.9 505.9 0 0 1-6.57-41.3 379.46 379.46 0 0 1-1.94-38.1c.23-12.08 1.11-23.59 2.66-34.53a229.14 229.14 0 0 1 6.76-30.48 197.88 197.88 0 0 1 9.96-26.29 203.77 203.77 0 0 1 12.27-23.08c4.3-7.5 8.91-14.73 13.8-21.84 4.71-7.67 9.68-15.51 14.9-23.7 5.01-9.02 10.3-18.59 15.83-28.84 5.37-11.08 11.02-22.76 16.93-34.88a733.98 733.98 0 0 1 18.17-36.64c6.2-11.14 12.68-21.01 19.41-29.22 6.62-6.6 13.53-11.19 20.68-13.72 7.12-1.23 14.55-1.03 22.32.05 7.84.75 16.07 1.12 24.7.5 8.82-2.54 18.04-6.66 27.63-12.26 9.73-7.12 19.75-14.71 29.93-21.93 10.19-6.38 20.43-10.74 30.67-12.45 10.1.66 20.16 4.06 30.17 9.7" stroke-dasharray="1 1" opacity=".07"/>
    <path d="M408.33 82.3c9.3 6.98 18.45 14.23 27.52 20.83a89.83 89.83 0 0 0 28.04 9.35c9.69-.52 19.37-1.87 29.01-3.32 9.73-1.34 19.3-1.27 28.67.72 9.35 3.82 18.54 10.01 27.62 18.4 9.18 9.94 18.41 21.26 27.8 33.37A662.01 662.01 0 0 0 607 196.9a301.02 301.02 0 0 0 33.19 26.8 482.49 482.49 0 0 0 34.93 17.6 529 529 0 0 1 32.99 14.18c9.84 4.93 18.64 10.53 26.18 16.86a67.47 67.47 0 0 1 14.7 22.22c1.96 8.48 2.08 17.5.35 26.89-2.94 9.61-7.6 19.43-13.81 29.3a286.92 286.92 0 0 1-23.97 29.62 1266.17 1266.17 0 0 1-27 28.84A452.49 452.49 0 0 0 663 436.4a142.88 142.88 0 0 0-11.02 25.59 140.95 140.95 0 0 0-.9 25.7c1.44 9.17 3.13 18.71 4.82 28.85a307.42 307.42 0 0 1 4.4 35.9c.6 13.99.14 29.03-1.46 45.03a364.57 364.57 0 0 1-10.18 49.69c-5.16 15.46-11.33 29.3-18.34 40.7-7.34 8.53-15.28 13.47-23.65 14.4-8.5-2.34-17.32-8.17-26.42-16.73-9.35-9.2-19.13-18.47-29.43-26.17-10.87-3.97-22.45-3.7-34.71 1.6-12.91 10.6-26.37 25.45-40.13 43.02-13.82 18.33-27.4 34.9-40.4 47.23-12.28 6.5-23.63 5.7-34-2.61-9.69-14.04-18.77-32.37-27.55-52.12-9.06-17.32-18.3-29.88-27.9-36.06-10.47 1.1-21.3 8.24-32.28 19.61-11.33 13.93-22.27 27.1-32.55 37.08-9.88 5.65-18.79 5.17-26.75-1.54-7.45-12.09-14.18-28.68-20.37-48.02-6.25-20.38-12.39-40.1-18.58-57.76-6.74-14.61-13.74-25.65-20.97-33.13a46.96 46.96 0 0 0-23.81-4.78c-8.33 1.97-16.47 3.94-24.27 5.11-7.84.62-15.18-.57-21.97-3.77-6.63-4.65-12.64-11.34-18-19.81-5.14-9.74-9.62-20.8-13.45-32.76a382.57 382.57 0 0 1-8.8-38.93 432.45 432.45 0 0 1-4.2-39.55c-.52-12.9-.41-25.32.35-37.2a279.47 279.47 0 0 1 4.76-33.85 228.46 228.46 0 0 1 8.62-29.8c3.41-9.24 7.27-17.81 11.52-25.8a246.8 246.8 0 0 1 13.66-23.18 467.42 467.42 0 0 1 15.18-22.79c5.18-8.14 10.64-16.54 16.37-25.35 5.58-9.56 11.43-19.66 17.56-30.33a2615.7 2615.7 0 0 1 18.75-34.92 549.46 549.46 0 0 1 19.7-34.26c6.55-9.86 13.27-18.27 20.12-24.91 6.65-5.08 13.42-8.22 20.35-9.47 6.82-.2 13.9.74 21.25 2.3 7.48.98 15.38 1.4 23.75.73 8.64-2.6 17.78-6.7 27.34-12.16 9.78-6.8 19.84-13.87 30.07-20.42 10.14-5.62 20.24-9.17 30.2-10.1 9.71 1.38 19.24 5.41 28.65 11.63" stroke-dasharray="0 5" opacity=".1"/>
    <path d="M425.18 91.06c8.64 7.47 17.14 15.21 25.64 22.36a90.9 90.9 0 0 0 26.97 11.51c9.57.26 19.26-.39 28.95-1.3 9.82-.96 19.48-.74 28.88 1.2 9.3 3.6 18.33 9.5 27.15 17.56 8.77 9.72 17.48 20.99 26.24 33.27 8.98 12.62 18.2 25.26 27.7 37.48a363.67 363.67 0 0 0 30.54 30.96 417.57 417.57 0 0 0 32.22 21.73 980.82 980.82 0 0 1 30.28 16.45c8.95 5.12 16.85 10.63 23.48 16.62 5.67 6.07 9.78 12.73 12.22 19.93 1.23 7.37.7 15.2-1.63 23.4-3.44 8.3-8.5 16.82-15.04 25.43a305.39 305.39 0 0 1-24.55 26c-9 8.7-18.24 17.35-27.44 25.9a403.73 403.73 0 0 0-22.5 25.54c-5.3 8.58-9.58 17.1-12.87 25.63a175.66 175.66 0 0 0-3.63 27.56c.4 10.08 1 20.73 1.58 32.09.91 12.15 1.37 25.18 1.15 39.12a381.7 381.7 0 0 1-4.12 45.99 338.16 338.16 0 0 1-11.6 46.4c-5.23 13.38-11.26 24.71-17.9 33.27-6.75 5.7-13.89 7.87-21.26 6.33-7.4-4.26-15.04-11.38-22.96-20.49-8.26-9.04-17.1-17.52-26.66-23.97-10.42-2.56-21.8-.94-34.17 5.37-13.24 10.99-27.2 25.55-41.53 42.16-14.35 16.78-28.33 31.43-41.5 41.73-12.16 4.68-23.06 2.47-32.65-6.7-8.68-14.37-16.57-32.66-24.13-52.22-7.96-17.28-16.32-30.17-25.36-37.14-10.23-.2-21.16 5.37-32.48 15.14-11.84 12.5-23.37 24.72-34.17 34.43-10.27 6.05-19.33 6.59-27.15 1.34-7.04-10.44-13.1-25.48-18.4-43.66-5.17-19.83-10.16-39.72-15.22-58.29-5.63-16.25-11.63-29.47-18.03-39.44-7.16-6.6-14.64-10.44-22.3-12.24-8.11.14-16.14.86-23.89 1.4-7.82.53-15.15-.2-21.87-2.5-6.53-3.35-12.36-8.52-17.46-15.37-4.8-8-8.87-17.35-12.2-27.77a276.3 276.3 0 0 1-7.03-34.99 353.5 353.5 0 0 1-2.14-36.98c.2-12.25 1-24.16 2.45-35.63a270.69 270.69 0 0 1 6.74-32.82c3-10.41 6.48-20.1 10.41-29.11a232.14 232.14 0 0 1 13.12-25.54 306.2 306.2 0 0 1 15.17-23.56 659.33 659.33 0 0 1 16.73-23.9 4521 4521 0 0 1 18.1-26.8c6.2-9.95 12.68-20.37 19.44-31.2 6.6-11.26 13.46-22.68 20.52-34.04a421.87 421.87 0 0 1 20.92-31.13c6.78-8.42 13.6-15.3 20.44-20.37 6.52-3.61 13.08-5.4 19.7-5.53 6.47.64 13.16 2.16 20.14 4.04a92.95 92.95 0 0 0 22.94.64c8.52-2.7 17.61-6.78 27.2-12.07 9.82-6.42 19.92-12.96 30.14-18.83 10.07-4.84 19.98-7.61 29.64-7.79 9.27 2.05 18.27 6.66 27.04 13.4" stroke-dasharray="5 1" opacity=".12"/>
    <path d="M441.57 100.8c7.97 7.9 15.81 16.08 23.7 23.73a92.74 92.74 0 0 0 25.77 13.57c9.4 1.05 19.02 1.12 28.73.81 9.87-.54 19.58-.1 29.02 1.86 9.26 3.42 18.17 9 26.73 16.71 8.4 9.4 16.62 20.47 24.74 32.75 8.23 12.87 16.6 26.02 25.17 39.02a465.35 465.35 0 0 0 27.44 34.58 415.96 415.96 0 0 0 29.02 25.8c9.6 6.75 18.75 13.06 27.22 19.14 8 5.52 15 11.15 20.74 17 4.85 5.69 8.2 11.76 9.94 18.18.63 6.42-.45 13.2-3.23 20.27-3.78 7.08-9.13 14.37-15.86 21.8a339.9 339.9 0 0 1-24.83 22.5c-9.06 7.63-18.37 15.34-27.69 23.14-8.48 8-16.31 15.99-23.37 24.02a168.14 168.14 0 0 0-14.74 25.7 213.52 213.52 0 0 0-6.5 29.15c-.72 10.82-1.28 22.3-1.88 34.53-.26 12.92-.95 26.6-2.24 41a433.24 433.24 0 0 1-6.67 45.28 298.5 298.5 0 0 1-12.52 41.8c-5.09 11.08-10.74 19.83-16.75 25.66-5.94 3.11-12.08 2.9-18.33-.63-6.23-5.64-12.7-13.5-19.53-22.65-7.3-8.47-15.36-15.87-24.4-20.91-10.1-1.14-21.47 1.72-34.02 8.85-13.58 11.19-27.98 25.26-42.76 40.74-14.71 15.13-28.89 27.83-42.01 36.17-11.87 2.96-22.19-.54-30.94-10.45-7.63-14.63-14.37-32.79-20.75-52.09-6.88-17.18-14.35-30.32-22.77-38-9.9-1.42-20.77 2.62-32.28 10.78-12.25 11.02-24.25 22.19-35.56 31.44-10.68 6.24-20 7.63-27.86 3.7-6.84-8.81-12.42-22.24-17.02-39.07-4.25-18.93-8.17-38.58-12.08-57.6-4.43-17.43-9.3-32.4-14.66-44.55-6.22-9.1-12.93-15.45-19.96-19.56-7.65-1.96-15.35-2.87-22.88-3.44-7.7-.08-14.94-.87-21.6-2.76a45.13 45.13 0 0 1-17.18-12.1c-4.63-6.46-8.44-14.25-11.47-23.14a190.73 190.73 0 0 1-5.74-30.75 277.82 277.82 0 0 1-.5-33.84c.8-11.4 2.22-22.61 4.28-33.51a261.18 261.18 0 0 1 8.57-31.46 245.77 245.77 0 0 1 12.14-28.34c4.54-8.9 9.47-17.33 14.75-25.37a394.2 394.2 0 0 1 16.8-24.05 923.46 923.46 0 0 1 18.46-24.9c6.38-8.94 13.05-18.19 20-27.8a4050.7 4050.7 0 0 1 21.33-31.27c7.18-10.9 14.56-21.73 22.08-32.25a315.1 315.1 0 0 1 21.77-27.35c6.85-6.91 13.64-12.22 20.3-15.76a39.51 39.51 0 0 1 18.8-2.02c6.12 1.3 12.44 3.22 19.08 5.26a82.05 82.05 0 0 0 22.32.31c8.47-2.78 17.56-6.83 27.18-11.92 9.86-6.04 20-12 30.18-17.17 9.95-4.08 19.65-6.08 28.95-5.55 8.8 2.68 17.24 7.83 25.37 15" stroke-dasharray="2 1" opacity=".15"/>
    <path d="M457.45 111.53c7.27 8.26 14.45 16.83 21.72 24.92a95.23 95.23 0 0 0 24.4 15.53c9.16 1.82 18.65 2.63 28.3 2.97 9.88-.05 19.61.66 29.07 2.68 9.24 3.29 18.03 8.58 26.38 15.92 8.06 9 15.8 19.75 23.31 31.86 7.48 12.9 14.97 26.32 22.55 39.84a665.66 665.66 0 0 0 24.02 37.5 469.1 469.1 0 0 0 25.36 29.57c8.4 7.93 16.4 15.22 23.78 22.06 6.97 6.12 12.98 12.06 17.82 17.98 5.36 8.37 7.1 25.7 3.2 34.76-4.06 6-9.56 12.19-16.42 18.52a384.28 384.28 0 0 1-24.85 19.3c-9.02 6.65-18.36 13.5-27.76 20.6a320.4 320.4 0 0 0-24.16 22.6 183.47 183.47 0 0 0-16.65 25.64A252.57 252.57 0 0 0 608.1 524c-1.85 11.3-3.58 23.28-5.36 35.97a786.49 786.49 0 0 1-5.51 41.36 465.18 465.18 0 0 1-8.83 43c-3.69 13.4-8 25.66-12.8 36.23-7.25 11.85-22.46 18.09-30.06 12.04-5.09-6.48-10.48-14.57-16.33-23.3-6.53-7.57-14.04-13.67-22.74-17.23-10 .24-21.45 4.2-34.26 11.93-13.92 11.17-28.67 24.59-43.75 38.8-14.88 13.42-29.06 24.2-41.96 30.66-11.4 1.34-21.03-3.32-28.87-13.86-6.6-14.8-12.2-32.75-17.44-51.72-5.82-17.02-12.41-30.34-20.16-38.67-9.47-2.53-20.15.05-31.73 6.61-12.48 9.5-24.87 19.51-36.6 28.15-11.1 6.24-20.76 8.28-28.8 5.52-6.81-7.3-12.12-19.08-16.22-34.4-3.5-17.79-6.5-36.82-9.32-55.85-3.24-18.13-6.88-34.42-11.05-48.34-5.08-11.29-10.75-19.99-16.9-26.41a84.98 84.98 0 0 0-21.11-9c-7.38-1.15-14.41-2.5-20.91-4.47a46.96 46.96 0 0 1-16.93-10.14c-4.55-5.24-8.23-11.7-11.06-19.23a131.33 131.33 0 0 1-4.92-26.6c-.48-9.87-.23-20.06.75-30.39a247.52 247.52 0 0 1 5.76-31.01c2.8-10.19 6.2-20.13 10.2-29.8a255.57 255.57 0 0 1 13.79-27.42c5.1-8.7 10.57-17.07 16.42-25.15 5.83-8.24 12-16.35 18.51-24.42 6.46-8.39 13.23-16.88 20.32-25.58 7-9.1 14.31-18.48 21.9-28.15a2329 2329 0 0 1 23.08-30.42 742.39 742.39 0 0 1 23.32-29.6c7.46-8.8 14.86-16.6 22.13-23.1 6.79-5.37 13.4-9.16 19.8-11.27 5.98-1 11.87-.6 17.73 1 5.76 1.78 11.75 3.94 18.1 6 6.69.93 13.97.96 21.93-.17 8.47-2.87 17.6-6.87 27.26-11.71 9.92-5.61 20.04-10.99 30.16-15.46 9.79-3.32 19.22-4.56 28.15-3.35 8.33 3.26 16.18 8.89 23.66 16.46" stroke-dasharray="2 2" opacity=".17"/>
    <path d="M472.7 123.24c6.6 8.58 13.08 17.46 19.71 25.95a98.65 98.65 0 0 0 22.91 17.34c8.85 2.59 18.13 4.15 27.65 5.15 9.82.5 19.53 1.55 28.96 3.68a81.54 81.54 0 0 1 26.07 15.2c7.77 8.55 15.07 18.88 22 30.66a1026.5 1026.5 0 0 1 19.94 39.94 1120.1 1120.1 0 0 0 20.41 39.61 608.45 608.45 0 0 0 21.33 32.88c7.09 9.04 13.82 17.33 19.97 25 5.84 6.81 10.8 13.23 14.67 19.38 4.15 8.36 4.15 24.4-.26 32.37-4.23 5.12-9.86 10.39-16.76 15.8a469.7 469.7 0 0 1-24.7 16.5 1252.7 1252.7 0 0 0-27.73 18.27 298.48 298.48 0 0 0-24.89 21.23 199.22 199.22 0 0 0-18.48 25.31 286.24 286.24 0 0 0-12.3 30.61 1319.86 1319.86 0 0 0-8.67 36.22 1041.3 1041.3 0 0 1-8.4 40.25c-3 13.57-6.49 26.84-10.4 39.4-3.83 11.62-8 21.81-12.4 30.1-6.3 8.38-18.55 8.74-24.48 1.06-4.05-6.8-8.51-14.64-13.61-22.6-5.97-6.4-13.13-11.08-21.7-13.16-10.06 1.52-21.69 6.4-34.79 14.54-14.2 10.96-29.2 23.53-44.44 36.37-14.88 11.7-28.86 20.6-41.36 25.26-10.8-.15-19.63-5.85-26.54-16.9-5.54-14.85-10.05-32.53-14.19-51.12-4.8-16.78-10.5-30.2-17.52-39.09-8.95-3.57-19.33-2.37-30.81 2.63-12.6 7.97-25.23 16.75-37.31 24.62-11.52 6.05-21.55 8.53-29.86 6.76-6.95-5.9-12.18-16.1-15.98-29.85-2.97-16.43-5.18-34.53-7.05-53.17-2.1-18.36-4.5-35.46-7.41-50.73-3.78-13.11-8.24-23.89-13.28-32.48a78.49 78.49 0 0 0-18.54-14.9c-6.82-2.55-13.43-4.86-19.62-7.35a56.8 56.8 0 0 1-16.44-9.53 50.26 50.26 0 0 1-10.78-16.29 91.16 91.16 0 0 1-4.42-22.86c-.26-8.6.28-17.63 1.6-26.92 1.6-9.38 3.91-18.84 6.92-28.29 3.23-9.41 7.1-18.73 11.61-27.9a271.42 271.42 0 0 1 15.33-26.32 360.21 360.21 0 0 1 18.05-24.74 597.2 597.2 0 0 1 20.26-24.49c7.06-8.43 14.45-16.98 22.16-25.72 7.62-9.04 15.53-18.29 23.7-27.7 7.99-9.6 16.19-19.2 24.52-28.68a537.93 537.93 0 0 1 24.09-26.21c7.53-7.39 14.9-13.67 22.02-18.59 6.58-3.85 12.88-6.2 18.92-7.01 5.62.05 11.12 1.3 16.6 3.45 5.45 2.1 11.17 4.35 17.32 6.31a79 79 0 0 0 21.75-.76 280.2 280.2 0 0 0 27.44-11.38c9.94-5.15 20.04-9.91 30.05-13.65 9.6-2.58 18.72-3.1 27.24-1.24 7.82 3.8 15.09 9.85 21.91 17.78" stroke-dasharray="3 2" opacity=".19"/>
    <path d="M487.23 135.9c5.91 8.83 11.72 17.99 17.7 26.81a101.84 101.84 0 0 0 21.28 19.02c8.46 3.33 17.44 5.63 26.76 7.32 9.68 1.05 19.3 2.5 28.68 4.83a83.4 83.4 0 0 1 25.74 14.58c7.51 8.07 14.43 17.89 20.83 29.2a607.16 607.16 0 0 1 17.48 39.36c5.6 13.86 11.17 27.57 16.75 40.88a935.7 935.7 0 0 0 17.07 35.5c5.67 10.04 11 19.27 15.83 27.75 4.6 7.56 8.42 14.55 11.25 21.07 2.85 8.6 1.05 24.01-3.87 31.19-4.42 4.48-10.13 9.03-17.05 13.67-7.28 4.5-15.5 9.2-24.48 14.15-8.86 5-18.12 10.38-27.6 16.23a284.94 284.94 0 0 0-25.56 19.83 216.6 216.6 0 0 0-20.19 24.59 313.3 313.3 0 0 0-14.91 30.17 1204.5 1204.5 0 0 0-11.59 35.29c-3.38 12.5-6.94 25.2-10.73 37.8a469.94 469.94 0 0 1-11.27 34.78c-3.7 9.68-7.52 17.74-11.35 23.8-5.12 5.26-14.35 1.02-18.75-7.53a169.95 169.95 0 0 0-11.53-20.77 34.98 34.98 0 0 0-21.31-8.93c-10.23 2.65-22.12 8.26-35.5 16.57-14.43 10.55-29.56 22.14-44.8 33.52-14.68 9.98-28.28 17.07-40.23 20.04-10.06-1.48-18.03-8.09-23.96-19.53-4.51-14.8-7.96-32.14-11.06-50.28-3.79-16.49-8.6-29.95-14.89-39.3-8.34-4.52-18.32-4.63-29.58-1.12-12.53 6.44-25.3 13.93-37.64 20.94-11.84 5.68-22.25 8.38-30.9 7.4-7.19-4.67-12.53-13.35-16.22-25.52-2.63-14.94-4.28-31.86-5.36-49.77-1.09-18.16-2.32-35.63-3.95-51.77-2.43-14.5-5.54-27-9.29-37.48a92.5 92.5 0 0 0-15.25-20.73c-5.99-4.17-11.92-7.74-17.6-11.12a79.25 79.25 0 0 1-15.5-10.16 46.17 46.17 0 0 1-10.4-14.43 67.07 67.07 0 0 1-4.08-19.78c-.12-7.47.61-15.41 2.17-23.7a173.32 173.32 0 0 1 7.81-25.53c3.57-8.6 7.83-17.23 12.77-25.84a286.39 286.39 0 0 1 16.7-25 409.78 409.78 0 0 1 19.6-24.03 712.34 712.34 0 0 1 21.93-24.11c7.62-8.28 15.58-16.67 23.85-25.2a1791.8 1791.8 0 0 1 25.2-26.42c8.4-8.9 16.94-17.65 25.53-26.1 8.21-8.11 16.35-15.6 24.33-22.24 7.44-5.89 14.6-10.61 21.42-14 9.22-2.95 25.58-1.29 33.29 2.2 5.19 2.25 10.72 4.44 16.75 6.23 6.52.52 13.77.1 21.79-1.38a385.28 385.28 0 0 0 27.67-10.9c9.96-4.65 20-8.77 29.86-11.79 9.36-1.84 18.14-1.66 26.22.8 7.3 4.3 13.97 10.72 20.13 18.94" stroke-dasharray="3 4" opacity=".22"/>
    <path d="M500.94 149.49c5.23 9.02 10.36 18.39 15.67 27.49a106.18 106.18 0 0 0 19.5 20.54 129.85 129.85 0 0 0 25.65 9.43 296.47 296.47 0 0 1 28.2 6.09 87.7 87.7 0 0 1 25.38 14.08c7.29 7.59 13.88 16.85 19.83 27.6a412.1 412.1 0 0 1 15.21 38.17c4.54 13.8 8.93 27.63 13.2 41.23 4.34 13.12 8.62 25.6 12.74 37.36 4.17 10.85 8.05 20.88 11.49 30.09 3.26 8.28 5.84 15.87 7.57 22.83 1.4 9.05-2.36 24.35-7.83 31.05-4.62 4.05-10.44 8.07-17.39 12.13a661.44 661.44 0 0 1-24.25 12.27 673.92 673.92 0 0 0-27.46 14.42 287.31 287.31 0 0 0-26.08 18.36 235.05 235.05 0 0 0-21.7 23.42c-6 9-11.69 18.66-17.13 28.9-4.73 10.67-9.36 21.8-13.93 33.23a2001.55 2001.55 0 0 1-12.35 34.24 432.67 432.67 0 0 1-11.39 29.53c-9.3 15.52-19.97 12.83-23.13 4.12a79.7 79.7 0 0 0-10.19-18.04c-5.57-3.67-12.69-5.42-21.52-4.77-10.5 3.6-22.69 9.7-36.3 18-14.57 9.95-29.7 20.45-44.75 30.35-14.33 8.28-27.4 13.64-38.65 15.07-9.24-2.7-16.27-10.05-21.22-21.78-3.5-14.66-5.92-31.6-8.02-49.23-2.83-16.14-6.77-29.55-12.29-39.3-7.67-5.35-17.12-6.67-28.02-4.58-12.34 4.94-25.07 11.1-37.56 17.12-12.12 5.17-22.86 7.92-31.88 7.52-7.52-3.63-13.09-10.91-16.86-21.54-2.5-13.38-3.79-28.96-4.28-45.85-.25-17.57-.45-34.97-.88-51.53-1.08-15.41-2.78-29.21-5.13-41.26-3.27-10.28-7.1-18.9-11.36-26.14A164.82 164.82 0 0 0 149 414.75c-7.49-5.8-19.62-18.15-23.67-25.53a53.6 53.6 0 0 1-3.72-17.5 90.53 90.53 0 0 1 2.58-20.9 146.4 146.4 0 0 1 8.46-22.89c3.84-7.8 8.4-15.72 13.71-23.7a300.26 300.26 0 0 1 17.9-23.45 461.33 461.33 0 0 1 20.95-22.96 773.16 773.16 0 0 1 23.4-23.18c8.1-7.9 16.54-15.89 25.25-23.94 8.55-8.14 17.34-16.28 26.27-24.32a709.8 709.8 0 0 1 26-22.8 276.75 276.75 0 0 1 24-17.93c7.18-4.37 14-7.57 20.41-9.52 8.59-1.09 23.75 2.96 31 6.88a100.57 100.57 0 0 0 16.44 5.88c6.57.25 13.91-.38 22.03-1.98 8.74-2.9 18.12-6.44 27.95-10.27 9.94-4.1 19.89-7.56 29.56-9.86 9.06-1.12 17.48-.28 25.09 2.76 6.76 4.74 12.82 11.5 18.33 19.94" stroke-dasharray="4 3" opacity=".24"/>
    <path d="M513.72 163.93c4.55 9.18 9 18.7 13.62 28.02A111.35 111.35 0 0 0 545 213.83a120.4 120.4 0 0 0 24.29 11.44c9.16 2.26 18.4 4.6 27.47 7.46a94.36 94.36 0 0 1 24.96 13.72c7.1 7.1 13.4 15.76 18.96 25.86a298.1 298.1 0 0 1 13.23 36.48c3.58 13.46 6.86 27.15 9.9 40.74 3.02 13.32 5.86 26.15 8.51 38.33 2.67 11.42 5.07 22.04 7.06 31.85a186.73 186.73 0 0 1 3.7 24.44c-.14 9.6-6.08 25.19-12.18 31.66-4.88 3.8-10.86 7.49-17.87 11.13a707.29 707.29 0 0 1-24.1 10.81 643.22 643.22 0 0 0-27.29 12.82 293.9 293.9 0 0 0-26.47 16.78 252.2 252.2 0 0 0-22.86 21.8 343.64 343.64 0 0 0-18.86 26.83 837.1 837.1 0 0 0-15.58 30.22 3003.63 3003.63 0 0 1-13.17 29.9 375.02 375.02 0 0 1-10.83 24.03c-10.8 6.79-20.34-12.88-26.21-19.67-5.7-2.25-13.09-2.65-22.26-.88-10.82 4.34-23.3 10.74-37.1 18.8-14.59 9.2-29.58 18.53-44.3 26.92-13.8 6.65-26.18 10.38-36.62 10.4-8.32-3.74-14.4-11.71-18.35-23.6-2.52-14.45-3.97-30.9-5.12-47.98-1.9-15.73-4.98-29.04-9.71-39.06-6.95-6.1-15.78-8.52-26.2-7.78-12 3.5-24.6 8.32-37.08 13.3-12.27 4.52-23.3 7.12-32.68 7.1-7.9-2.77-13.8-8.83-17.8-18-2.57-11.84-3.7-25.94-3.82-41.62.38-16.67 1.04-33.6 1.68-50.15a551.1 551.1 0 0 0-1.08-43.71 190.23 190.23 0 0 0-7.07-30.79c-3.61-7.5-7.47-13.97-11.36-19.73-6.24-7.32-16.73-20.95-20.29-28.19-2.43-7.6-2.52-25.02-.14-34.72a124.54 124.54 0 0 1 8.97-20.53 200.53 200.53 0 0 1 14.43-21.55 311.64 311.64 0 0 1 18.86-21.68 494.88 494.88 0 0 1 22.07-21.48 807.8 807.8 0 0 1 24.53-21.69c8.46-7.32 17.21-14.66 26.22-21.99 8.79-7.3 17.76-14.52 26.8-21.5a516.83 516.83 0 0 1 25.86-18.98c8.02-5.35 15.77-9.9 23.15-13.48 9.97-3.8 26.95-4.84 34.2-2.37 6.8 3.39 21.36 10.6 30.12 12.8 6.7.02 14.18-.8 22.46-2.47 8.87-2.8 18.34-6.06 28.19-9.46 9.9-3.51 19.7-6.3 29.13-7.88 8.75-.42 16.74 1.06 23.86 4.62 6.22 5.14 11.67 12.16 16.52 20.79" stroke-dasharray="1 3" opacity=".26"/>
    <path d="M525.47 179.17c3.87 9.27 7.63 18.9 11.57 28.36 4.54 8.58 9.73 16.3 15.68 23.03 6.9 5.3 14.53 9.67 22.7 13.34 8.78 2.87 17.7 5.7 26.52 8.86a104.52 104.52 0 0 1 24.42 13.5c6.93 6.65 13 14.72 18.23 24.12 4.58 10.46 8.4 22 11.58 34.37a598.04 598.04 0 0 1 6.98 39.47 1196.4 1196.4 0 0 1 4.54 38.37 683.4 683.4 0 0 1 2.72 32.9c.47 9.4.42 17.96-.25 25.73a66.14 66.14 0 0 1-5.2 18.93 53 53 0 0 1-11.72 13.68c-5.21 3.71-11.4 7.19-18.51 10.54a628.81 628.81 0 0 1-24.07 9.72 704.62 704.62 0 0 0-27.1 11.38 314.61 314.61 0 0 0-26.7 15.09c-8.1 6-16 12.59-23.63 19.72a349.06 349.06 0 0 0-19.97 24.11 735.68 735.68 0 0 0-16.5 26.52c-4.64 8.83-9.06 17.3-13.22 25.12-15.96 18.14-24.47 1.48-30.6-3.28-6.06-.9-13.84-.12-23.43 2.58-11.17 4.85-23.88 11.32-37.8 18.96-14.48 8.34-29.17 16.43-43.4 23.33-13.13 5.08-24.7 7.33-34.23 6.09-7.37-4.64-12.46-13.1-15.43-25.01-1.55-14.15-2.08-30.07-2.34-46.55-1.04-15.26-3.28-28.4-7.2-38.62-6.18-6.73-14.32-10.14-24.15-10.64-11.54 2.1-23.81 5.6-36.17 9.5-12.32 3.76-23.54 6.06-33.24 6.22-8.3-2.12-14.6-7.14-18.92-14.98-2.8-10.33-4-22.93-3.94-37.25a1127.1 1127.1 0 0 1 3.58-47.81 965.58 965.58 0 0 0 2.66-44.85 296.18 296.18 0 0 0-2.6-34.43 193.78 193.78 0 0 0-7.37-23.84c-3.11-6.15-6.13-11.8-8.85-17.18-3.97-7.38-8.67-22.34-8.97-30.33a62.99 62.99 0 0 1 3.54-17.01 108.9 108.9 0 0 1 9.43-18.47c4.18-6.3 9.18-12.8 14.99-19.46a311.23 311.23 0 0 1 19.57-19.74 498.7 498.7 0 0 1 22.84-19.63A780.77 780.77 0 0 1 246.75 214a930.92 930.92 0 0 1 26.64-19.43c8.86-6.29 17.8-12.38 26.73-18.13a358.73 358.73 0 0 1 25.15-14.87 139.77 139.77 0 0 1 21.81-9.1c9.2-1.82 24.7.16 31.37 3.51 6.43 3.76 20.87 10.67 29.8 12.47a141.9 141.9 0 0 0 23.02-2.82c9.01-2.62 18.55-5.56 28.4-8.47 9.8-2.9 19.4-5 28.55-5.87 8.4.26 15.94 2.33 22.54 6.36 5.66 5.49 10.5 12.75 14.7 21.52" stroke-dasharray="4 3" opacity=".29"/>
    <path d="M536.05 195.11c3.22 9.3 6.3 18.97 9.56 28.53a123.57 123.57 0 0 0 13.62 23.97 107.53 107.53 0 0 0 20.91 15.1c8.3 3.43 16.81 6.75 25.3 10.25a117.98 117.98 0 0 1 23.76 13.42 93.1 93.1 0 0 1 17.6 22.42c4.26 9.66 7.66 20.4 10.27 31.95a401.72 401.72 0 0 1 4.52 37.51c.7 12.81 1.02 25.4 1 37.58a498.78 498.78 0 0 1-1.36 33.15 196.4 196.4 0 0 1-4.12 26.49 81.66 81.66 0 0 1-8.26 19.61 65.87 65.87 0 0 1-13.62 13.95c-5.63 3.7-12.1 7.07-19.37 10.21a521.4 521.4 0 0 1-24.12 8.87 857.04 857.04 0 0 0-26.93 10.06 350.2 350.2 0 0 0-26.67 13.27 293.44 293.44 0 0 0-24 17.32 351.65 351.65 0 0 0-20.45 20.92 611.85 611.85 0 0 0-16.66 22.4c-4.59 7.32-8.81 14.15-12.64 20.26-11.76 9.96-19.33-4.65-26.08-7.43-6.52.28-14.8 2.07-24.84 5.46a875.09 875.09 0 0 0-38.28 18.52c-14.26 7.38-28.5 14.2-42.11 19.65-12.34 3.61-23 4.5-31.54 2.17-6.36-5.39-10.45-14.17-12.48-26.04-.65-13.76-.32-29.08.26-44.92-.21-14.75-1.63-27.64-4.75-37.97-5.38-7.25-12.75-11.54-21.9-13.18-10.94.8-22.78 3.04-34.87 5.82-12.22 2.92-23.54 4.78-33.48 4.94-8.66-1.67-15.37-5.84-20.12-12.5-3.16-8.94-4.59-20.07-4.58-32.95a632.57 632.57 0 0 1 4.79-44.72c2.15-15.48 4.18-30.49 5.88-44.72a485.1 485.1 0 0 0 1.76-36.93 284.01 284.01 0 0 0-3-27.37c-1.83-7.3-3.68-13.94-5.38-20.13-2.66-8.36-5.52-24.06-5.21-31.9a60.78 60.78 0 0 1 4.3-15.93c2.48-5.4 5.78-11 9.94-16.76a177.4 177.4 0 0 1 15.43-17.5 304.19 304.19 0 0 1 20-17.66 485.78 485.78 0 0 1 23.24-17.44 690.53 690.53 0 0 1 25.47-17.16 729.88 729.88 0 0 1 26.49-16.36c8.7-5.16 17.43-10 26.04-14.44 8.2-4.16 16.2-7.76 23.86-10.68a99.99 99.99 0 0 1 20.14-5.01c8.37-.11 22.45 4.3 28.64 8.23 6.22 3.9 20.82 10.29 30.05 11.7 7.12-.36 15-1.37 23.63-2.96 9.14-2.38 18.73-4.92 28.52-7.3 9.66-2.26 19.03-3.66 27.84-3.85 7.98.91 15.05 3.53 21.12 8 5.1 5.79 9.33 13.23 12.88 22.07" stroke-dasharray="0 3" opacity=".31"/>
    <path d="M545.39 211.64c2.57 9.29 4.99 18.94 7.56 28.54 3.15 8.9 6.95 17.2 11.5 24.68 5.58 6.3 11.92 11.8 18.94 16.63 7.74 4.01 15.76 7.8 23.82 11.64a137.21 137.21 0 0 1 22.93 13.46 87.97 87.97 0 0 1 17.05 20.8c4.02 8.86 7.1 18.71 9.3 29.36a291.6 291.6 0 0 1 2.58 35.04c-.2 12.15-.87 24.22-1.98 35.97a398.2 398.2 0 0 1-5 32.58 201.34 201.34 0 0 1-7.75 26.63 100.26 100.26 0 0 1-11.25 20 81.77 81.77 0 0 1-15.64 14.12 136.39 136.39 0 0 1-20.32 10.02 440.25 440.25 0 0 1-24.3 8.17c-8.52 2.72-17.45 5.63-26.7 8.79a410.68 410.68 0 0 0-26.44 11.37 314.25 314.25 0 0 0-23.88 14.7c-7.1 5.63-13.9 11.5-20.33 17.46a525.33 525.33 0 0 0-16.2 18.16c-17.73 22.37-21 15.37-23.12 10.8-2.76-2.02-6.81-3.33-12.4-3.65-7.11 1.3-15.94 3.85-26.4 7.69-11.78 5.2-24.75 11.19-38.5 17.52-13.89 6.36-27.55 11.91-40.39 15.97-11.43 2.27-21.1 1.96-28.61-1.32-5.34-5.97-8.46-14.98-9.56-26.68.2-13.31 1.33-28 2.69-43.14.56-14.2-.08-26.76-2.4-37.13a33.72 33.72 0 0 0-19.5-15.35c-10.24-.4-21.5.6-33.19 2.28-12 2.03-23.28 3.34-33.36 3.35-8.96-1.41-16.1-4.91-21.28-10.6-3.6-7.68-5.41-17.4-5.63-28.85.87-12.84 2.75-26.7 5.27-41.1 2.79-14.75 5.66-29.35 8.41-43.48 2.36-13.63 4.3-26.4 5.8-38.22a457.43 457.43 0 0 0 1.43-30.05c-.4-8.3-.94-15.87-1.46-22.83-1.08-9.4-1.58-26.23-.46-34.14 1.96-7.62 9.87-22.96 15.94-30.75a168.62 168.62 0 0 1 15.78-15.65 288.95 288.95 0 0 1 20.19-15.54 450.47 450.47 0 0 1 23.24-15.04c8.1-4.89 16.52-9.69 25.17-14.33a548.1 548.1 0 0 1 25.77-13.05 358.57 358.57 0 0 1 24.79-10.6 175.6 175.6 0 0 1 22.15-6.65c9.58-1.46 25.79-.06 32.5 2.7 6.1 3.44 18.14 11.56 24.98 15.22a87.84 87.84 0 0 0 17.82 3.19c7.37-.47 15.49-1.47 24.28-2.89a848.97 848.97 0 0 1 28.5-5.97c9.46-1.6 18.54-2.32 26.96-1.83a41.58 41.58 0 0 1 19.63 9.5c4.52 6.04 8.15 13.62 11.07 22.48" stroke-dasharray="3 1" opacity=".33"/>
    <path d="M553.38 228.61c1.95 9.24 3.71 18.82 5.6 28.38a141.47 141.47 0 0 0 9.37 25.18 100.24 100.24 0 0 0 16.77 17.97c7.1 4.5 14.56 8.75 22.11 12.93 7.73 4.05 15.1 8.52 21.92 13.6a85.72 85.72 0 0 1 16.5 19.32 111.66 111.66 0 0 1 8.64 26.72 212.99 212.99 0 0 1 1.2 32.15c-.87 11.3-2.34 22.6-4.3 33.7a328.52 328.52 0 0 1-8.06 31.23 203.59 203.59 0 0 1-10.96 26.1 119.87 119.87 0 0 1-14.04 19.92 100.15 100.15 0 0 1-17.6 14.12 148 148 0 0 1-21.32 9.77 377.74 377.74 0 0 1-24.5 7.5c-8.5 2.43-17.32 4.92-26.4 7.55a527.72 527.72 0 0 0-25.97 9.41 359.74 359.74 0 0 0-23.37 11.98 354.02 354.02 0 0 0-19.7 13.96 490.14 490.14 0 0 0-15.24 14.07c-14.48 14.57-17.47 7.95-20.34 4.93-3.4-.9-8.14-1.13-14.43-.44a318.25 318.25 0 0 0-27.98 9.22c-11.95 5.06-24.88 10.54-38.35 16.05-13.39 5.3-26.34 9.59-38.3 12.35-10.44 1.05-19.05-.31-25.5-4.38-4.31-6.42-6.48-15.5-6.72-26.95 1-12.8 2.87-26.8 4.94-41.24 1.29-13.58 1.4-25.78-.15-36.08a34.48 34.48 0 0 0-16.97-17.17c-9.45-1.48-20.03-1.63-31.17-1.02-11.63 1.11-22.75 1.8-32.86 1.52-9.17-1.32-16.66-4.37-22.3-9.25-4.1-6.59-6.38-15.04-7-25.1.62-11.41 2.42-23.94 5.08-37.18a1464.1 1464.1 0 0 1 10.17-41.3c3.36-13.41 6.49-26.24 9.25-38.31a793.8 793.8 0 0 0 5.7-31.77c1.05-9.06 1.9-17.36 2.64-25 .43-7.08.98-13.67 1.77-19.86 1.23-8.57 6.14-24.32 10.2-31.79 3.04-4.8 6.8-9.56 11.28-14.33 4.63-4.64 10-9.3 16.08-13.96a265 265 0 0 1 20.13-13.4c7.23-4.3 14.88-8.47 22.86-12.5 7.9-3.99 16.07-7.8 24.4-11.38 8.13-3.5 16.34-6.74 24.51-9.63 7.88-2.73 15.6-5.06 23.09-6.87 7.07-1.6 13.82-2.6 20.15-2.97 8.6.17 23.07 4.12 29.17 7.68 5.73 3.85 17.74 11.9 24.86 15.24a105.28 105.28 0 0 0 18.67 2.62c7.64-.48 15.98-1.38 24.9-2.58 9.28-1.68 18.8-3.26 28.32-4.47 9.21-.95 17.94-.99 25.93.14 7.06 2.1 13.1 5.7 18.05 10.87 3.95 6.25 6.98 13.9 9.27 22.74" stroke-dasharray="3 0" opacity=".36"/>
    <path d="M559.97 245.9c1.33 9.13 2.45 18.59 3.68 28.05 1.77 8.98 4.13 17.5 7.2 25.43 4.07 7 8.93 13.34 14.5 19.07 6.4 4.96 13.2 9.6 20.18 14.11 7.23 4.28 14.2 8.84 20.7 13.81a87.03 87.03 0 0 1 15.94 18 92.39 92.39 0 0 1 8.22 24.1c1.01 9.27 1.1 19.02.36 29.07a256.87 256.87 0 0 1-5.96 30.88 276.37 276.37 0 0 1-10.38 29.23 203.1 203.1 0 0 1-13.61 24.9 136.8 136.8 0 0 1-16.46 19.31 119.62 119.62 0 0 1-19.36 13.78c-6.99 3.62-14.41 6.72-22.26 9.39a333.4 333.4 0 0 1-24.67 6.79c-8.44 2.1-17.13 4.18-26 6.29a786.3 786.3 0 0 0-25.27 7.46 440.87 440.87 0 0 0-22.5 9.28 401.15 401.15 0 0 0-18.67 10.6c-23.3 18.63-27.38 18.49-27.96 15.88-2.13-1.95-13.03-3.06-22.83-1.24-8.4 2.62-18.24 6-29.4 10.02a1169 1169 0 0 1-37.81 14.2c-12.76 4.2-24.88 7.31-35.85 8.88-9.4-.04-16.91-2.3-22.29-7-3.32-6.72-4.57-15.78-3.98-26.89 1.72-12.23 4.26-25.52 6.98-39.19 1.95-12.93 2.75-24.72 1.96-34.88-2.88-8.14-7.71-14.31-14.37-18.62-8.58-2.45-18.36-3.64-28.85-4.04-11.1.2-21.93.19-31.94-.46-9.27-1.4-17.02-4.16-23.08-8.43-4.61-5.69-7.41-13-8.52-21.77.18-10.05 1.7-21.2 4.26-33.17a750.12 750.12 0 0 1 11.08-38.39c4.12-12.89 8.15-25.39 11.99-37.35 3.5-11.53 6.67-22.36 9.52-32.44 2.44-9.52 4.63-18.32 6.66-26.45a440.5 440.5 0 0 1 5.28-21.21 135.37 135.37 0 0 1 5.99-17.45 90.73 90.73 0 0 1 8.52-15c3.45-4.62 7.5-9.1 12.2-13.46 4.8-4.23 10.25-8.37 16.34-12.42a232.05 232.05 0 0 1 19.89-11.32 316.97 316.97 0 0 1 22.13-9.97c7.6-3.06 15.35-5.88 23.2-8.41a285.85 285.85 0 0 1 22.86-6.32 176.26 176.26 0 0 1 21.07-3.43c9.4-.46 25.68 1.71 32.53 4.36 6.12 3.22 17.3 11.33 23.04 15.63 6.59 3.45 23.22 7.97 33.72 8.67 7.9-.41 16.42-1.13 25.42-2.01a410.7 410.7 0 0 1 27.96-2.88c8.9-.29 17.21.32 24.72 2.07a39.31 39.31 0 0 1 16.4 12.1c3.38 6.39 5.82 14.07 7.51 22.84" stroke-dasharray="5 2" opacity=".38"/>
    <path d="M565.06 263.36c.75 8.96 1.26 18.23 1.85 27.55a165.3 165.3 0 0 0 5.04 25.46 97.51 97.51 0 0 0 12.13 19.9 217.14 217.14 0 0 0 18.05 15.13c6.67 4.5 13.17 9.14 19.28 14.06a92.03 92.03 0 0 1 15.3 16.85 78.8 78.8 0 0 1 8 21.64c.94 8.24.9 16.91-.01 25.87a195.39 195.39 0 0 1-6.9 27.75 232.12 232.12 0 0 1-11.96 26.66 197.08 197.08 0 0 1-15.55 23.1 152.33 152.33 0 0 1-18.33 18.18c-6.6 5-13.53 9.34-20.8 13.04a170.4 170.4 0 0 1-23 8.75c-8 2.31-16.25 4.28-24.72 5.98a933.61 933.61 0 0 1-25.47 5.01c-8.36 1.86-16.5 3.7-24.37 5.57a658.05 658.05 0 0 0-21.4 6.74 383.75 383.75 0 0 0-30.08 14.69c-10.85 4.93-17.21 1.76-22.46 1.53-5.04.87-11.41 2.27-19.17 4.28-8.97 2.92-19.2 6.36-30.52 10.16a721.74 721.74 0 0 1-36.85 12c-12 3.15-23.2 5.15-33.12 5.63-8.3-1-14.71-4-19.03-9.17-2.35-6.89-2.73-15.82-1.39-26.51 2.38-11.61 5.52-24.15 8.81-37.05 2.56-12.27 4.01-23.58 3.95-33.52-2.06-8.22-6-14.77-11.74-19.7-7.64-3.29-16.54-5.42-26.26-6.76a637.13 637.13 0 0 1-30.63-2.5c-9.24-1.59-17.17-4.21-23.55-8.05-5.09-4.96-8.43-11.3-10.1-18.95-.36-8.77.7-18.6 2.96-29.25a454.91 454.91 0 0 1 11.19-35.01 1809.2 1809.2 0 0 1 13.82-35.46l12.71-32.09a5470.1 5470.1 0 0 1 10.36-27.06 537.46 537.46 0 0 1 8.75-22.07 183.5 183.5 0 0 1 8.77-17.97c3.1-5.3 6.54-10.26 10.4-14.92 3.93-4.48 8.32-8.7 13.23-12.72a145.05 145.05 0 0 1 16.6-11 205.09 205.09 0 0 1 19.48-9.34 258 258 0 0 1 21.15-7.54 263.82 263.82 0 0 1 21.7-5.62c7.1-1.47 14.1-2.58 20.94-3.28 9.76-.67 27.29.48 34.9 2.4 6.8 2.53 18.58 9.7 23.94 14.03 5.58 4.05 18.51 11.35 26.52 14.07 6.21 1.01 13.08 1.7 20.6 2.04 8.12-.25 16.75-.7 25.77-1.23 9.2-.73 18.4-1.2 27.37-1.19 8.52.37 16.37 1.61 23.35 3.91a38.66 38.66 0 0 1 14.72 13.15c2.81 6.5 4.68 14.16 5.77 22.82" stroke-dasharray="4 3" opacity=".41"/>
    <path d="M568.65 280.79c.18 8.75.12 17.8.09 26.89a178.1 178.1 0 0 0 2.92 25.25 97.63 97.63 0 0 0 9.7 20.46 174.68 174.68 0 0 0 15.75 15.98 470.1 470.1 0 0 1 17.66 14.3 101.2 101.2 0 0 1 14.55 15.88c3.58 6 6.21 12.47 7.9 19.36.95 7.27.93 14.9 0 22.76a145.6 145.6 0 0 1-7.17 24.44 188.04 188.04 0 0 1-12.76 23.72 181.87 181.87 0 0 1-16.73 20.82A158.24 158.24 0 0 1 581 527.2a151.75 151.75 0 0 1-21.77 11.93 181.25 181.25 0 0 1-23.44 7.85 283.54 283.54 0 0 1-24.56 5.02 590.49 590.49 0 0 1-24.78 3.71c-8.07 1.34-15.85 2.6-23.3 3.78-7.14 1.54-13.86 3.02-20.14 4.44-8.58 2.6-22.4 7.45-27.53 9.43-11.13 2.7-20.93 1.8-27.59 2.64a815.08 815.08 0 0 0-21.5 5.6c-9.43 2.98-19.93 6.25-31.25 9.66a514 514 0 0 1-35.47 9.63c-11.12 2.13-21.3 3.1-30.12 2.62-7.19-1.78-12.51-5.38-15.79-10.89-1.43-6.96-1.01-15.65 1.01-25.87a967.2 967.2 0 0 1 10.44-34.83c3.1-11.56 5.16-22.35 5.78-32.02-1.27-8.2-4.34-15-9.13-20.42-6.66-3.98-14.62-6.93-23.47-9.12-9.74-1.5-19.53-2.91-28.93-4.53-9.08-1.86-17.04-4.5-23.66-8.06a35.55 35.55 0 0 1-11.58-16.65c-.97-7.62-.46-16.2 1.3-25.58a294.64 294.64 0 0 1 10.54-31.38 866.23 866.23 0 0 1 14.78-32.87c5.12-10.7 10.16-21 15.07-30.82 4.69-9.5 9.18-18.46 13.49-26.81 4.09-8 8.06-15.42 11.96-22.28a234.53 234.53 0 0 1 11.47-18.16 138.8 138.8 0 0 1 12.35-14.7 120.3 120.3 0 0 1 14.31-11.98 137.95 137.95 0 0 1 16.86-9.68 176.1 176.1 0 0 1 18.96-7.51c6.55-2.1 13.24-3.87 20-5.31 6.7-1.39 13.4-2.42 20.02-3.08 6.49-.62 12.83-.84 18.93-.65 8.72.58 24.23 4.03 30.94 6.89 6.13 3.22 17.13 11.18 22.44 15.56 5.78 3.95 19.58 10.8 28.15 13.28a246.1 246.1 0 0 0 21.48 2.13c8.28-.03 16.98-.16 25.94-.24 9.03-.21 17.97-.1 26.56.55 8.07.99 15.41 2.82 21.83 5.63a38.35 38.35 0 0 1 12.97 14.04c2.26 6.55 3.56 14.14 4.1 22.62" stroke-dasharray="4 3" opacity=".43"/>
    <path d="M570.71 298.02c-.36 8.5-.97 17.26-1.6 26.09-.19 8.55.06 16.86.89 24.82a99.43 99.43 0 0 0 7.25 20.74 142.8 142.8 0 0 0 13.34 16.6c5.34 4.88 10.68 9.7 15.82 14.52 5.13 4.8 9.73 9.8 13.66 15.07a64.25 64.25 0 0 1 7.81 17.33c1.05 6.37 1.16 13 .34 19.81a106.9 106.9 0 0 1-6.9 21.14 149.9 149.9 0 0 1-12.79 20.59 166.63 166.63 0 0 1-17.12 18.2 161.15 161.15 0 0 1-20.1 14.54 162.55 162.55 0 0 1-22.16 10.46 190.29 190.29 0 0 1-23.5 6.7 263.85 263.85 0 0 1-24.14 3.9 429.85 429.85 0 0 1-23.92 2.42c-7.73.85-15.12 1.55-22.12 2.13a1041 1041 0 0 0-33.68 5.2c-18.54 3.96-27.32 4.12-31.4 4.28-3.77.68-8.47 1.57-14.2 2.72-6.75 1.79-14.61 3.86-23.56 6.21-9.75 2.83-20.34 5.76-31.51 8.63a390.86 390.86 0 0 1-33.66 7.15c-10.16 1.18-19.28 1.22-26.95-.07-6.08-2.45-10.32-6.5-12.62-12.2-.57-6.9.59-15.3 3.22-24.99 3.48-10.27 7.6-21.25 11.85-32.55 3.57-10.84 6.16-21.06 7.43-30.37-.5-8.1-2.7-15.04-6.57-20.82-5.65-4.54-12.62-8.17-20.53-11.1-8.9-2.26-18-4.32-26.89-6.46-8.75-2.21-16.61-4.95-23.33-8.38-5.77-4.05-10.07-9-12.86-14.85-1.6-6.63-1.74-14.1-.57-22.28 2.14-8.8 5.3-18.1 9.26-27.72 4.53-9.91 9.53-19.9 14.83-29.8 5.46-9.93 11-19.55 16.5-28.82a1068.2 1068.2 0 0 1 15.9-25.76c5-7.81 9.89-15.1 14.67-21.83a273 273 0 0 1 13.94-17.87c4.61-5.2 9.33-9.96 14.2-14.27 4.9-4.12 10-7.83 15.35-11.15 5.43-3.18 11.12-6 17.08-8.44a151.19 151.19 0 0 1 18.38-5.83 148.15 148.15 0 0 1 37.1-4.26c8.72.36 24.75 3.1 31.9 5.49 6.63 2.75 18.3 9.92 23.59 14.13 5.36 4.1 16.97 12.2 23.76 15.86 5.2 1.91 10.9 3.63 17.18 5.15 6.87 1 14.3 1.8 22.24 2.45 8.36.28 17.03.55 25.85.93 8.78.34 17.36 1.06 25.5 2.29 7.57 1.57 14.36 3.94 20.18 7.21a38.5 38.5 0 0 1 11.21 14.76c1.7 6.55 2.46 14.02 2.45 22.29" stroke-dasharray="1 1" opacity=".45"/>
    <path d="M571.24 314.88c-.85 8.2-1.99 16.64-3.16 25.14A223.24 223.24 0 0 0 567 364.2c.95 7.3 2.58 14.23 4.84 20.75 3.15 5.98 6.81 11.63 10.85 16.99 4.6 5 9.27 9.87 13.83 14.68 4.66 4.69 8.9 9.47 12.57 14.37 4.65 7.6 9.02 24 8.55 32.71a77.12 77.12 0 0 1-6.16 17.99c-3.4 6-7.5 11.85-12.2 17.42a143.45 143.45 0 0 1-16.75 15.41 156.35 156.35 0 0 1-19.92 12.3 167.52 167.52 0 0 1-21.96 8.71 194.92 194.92 0 0 1-23.08 5.33 250.8 250.8 0 0 1-23.42 2.71c-7.73.64-15.38 1.02-22.88 1.14-7.36.38-14.33.59-20.9.65-9.27.51-25.03 1.44-31.41 1.83-14.45 1.55-24.35 2.17-27.48 2.24-4.33.68-17.47 3.12-26.88 5.15-7.46 1.9-15.88 3.96-25.19 6.15a729.99 729.99 0 0 1-31.25 7.16 302.4 302.4 0 0 1-31.44 4.68c-9.14.3-17.14-.45-23.68-2.43a20.01 20.01 0 0 1-9.56-13.11c.21-6.77 2.03-14.78 5.2-23.9 3.92-9.57 8.42-19.75 13.03-30.24 3.97-10.11 7.06-19.73 8.91-28.63.21-7.9-1.16-14.87-4.09-20.88-4.66-4.97-10.6-9.16-17.52-12.7a614.24 614.24 0 0 0-24.52-8.22c-8.3-2.59-15.92-5.5-22.6-8.9-5.94-3.83-10.57-8.33-13.83-13.53-2.19-5.81-2.98-12.32-2.48-19.43 1.48-7.65 4.05-15.77 7.52-24.21a342.48 342.48 0 0 1 14.06-26.52 654.4 654.4 0 0 1 17-26.26 772.07 772.07 0 0 1 17.42-24.03 526.87 526.87 0 0 1 16.7-20.74c5.4-6.2 10.7-11.9 15.98-17.09 5.24-4.99 10.5-9.5 15.8-13.53A142.73 142.73 0 0 1 306.35 228c5.6-2.83 11.33-5.24 17.22-7.22 5.95-1.9 11.89-3.34 17.8-4.34 8.87-1.23 26.11-1.62 34.3-.8 7.88 1.21 22.23 5.5 28.62 8.53 6.03 3.27 17 11.04 22.22 15.34 5.53 4.06 17.93 11.87 25.28 15.34a207.63 207.63 0 0 0 18.25 5.06c7.15 1.11 14.77 2.1 22.8 3.01 8.35.65 16.9 1.35 25.47 2.24 8.45.9 16.59 2.18 24.23 3.97 7 2.13 13.19 4.98 18.38 8.63 4.25 4.2 7.4 9.3 9.44 15.3 1.16 6.51 1.4 13.81.89 21.82" stroke-dasharray="4 3" opacity=".48"/>
    <path d="M570.3 331.19a670.44 670.44 0 0 1-4.63 24.05 256.18 256.18 0 0 0-2.92 23.33 103.16 103.16 0 0 0 10.81 37.62c8.12 9.85 16.2 19.26 23 28.5 6.03 9.28 9.1 18.98 8.9 28.86-2.37 10.25-7.95 20.28-16.2 29.5a130.7 130.7 0 0 1-34.82 22.56 175.72 175.72 0 0 1-43.36 10.68c-7.49.85-14.96 1.32-22.37 1.45-7.36.23-14.61.2-21.68-.08a374.6 374.6 0 0 1-19.64-.64c-5.96-.07-11.46-.27-16.5-.56-9.48.35-17.09.26-22.95-.28-5.46.61-9.92.71-14.14.4-5.34 1.01-12.06 1.95-21.19 3.14a1015.75 1015.75 0 0 1-45.7 9.51c-19.95 4.12-40.5 7.07-59.33 7.69-14.99-1.58-24.42-7.43-27-18.1.92-6.53 3.32-14.12 6.94-22.63 4.28-8.85 9.09-18.23 14-27.91 4.32-9.37 7.82-18.37 10.2-26.8.87-7.63.3-14.53-1.73-20.65-8.88-9.69-21.82-17.2-36.37-23.65-15.36-5.93-27.81-13.14-35.88-22.17-4.41-10.8-3.73-23.72 1.2-38.04 7.72-15.5 17.85-31.32 29.24-46.59a523.6 523.6 0 0 1 35.99-40.92c11.71-11.34 23.17-20.82 34.42-28.33a148.82 148.82 0 0 1 17-9.17c5.72-2.46 11.5-4.47 17.29-6.01 8.71-1.97 25.6-3.56 33.7-3.26a91.68 91.68 0 0 1 29.19 6.62A88.92 88.92 0 0 1 419 243.17c7.37 5.02 14.81 10.57 22.85 16.25a238.19 238.19 0 0 0 34.3 12.07c15.05 2.3 31.35 4.59 47.85 7.38 15.7 3.02 29.23 7.94 39.22 15.45a38.95 38.95 0 0 1 7.66 15.65c.66 6.41.41 13.5-.58 21.2" stroke-dasharray="1 2" opacity=".5"/>
    <path d="M567.91 346.76c-3.6 15.04-7.6 30.36-10.56 45.16-.15 13.5 1.98 25.87 6.05 36.98 6.54 9.88 13.36 19.11 19.31 27.9 5.64 8.56 8.77 17.14 9 25.58-1.6 8.6-6.23 16.82-13.52 24.22-8.84 7.22-19.66 13.2-31.87 17.6a168.81 168.81 0 0 1-40.7 7.27c-14.13.83-28.07.45-41.38-1a311.09 311.09 0 0 1-34.02-3.39 214.12 214.12 0 0 1-22.85-1.97c-6.1.26-11.64.25-17.35.1a804.45 804.45 0 0 1-26.54 3.7 851.76 851.76 0 0 1-48.13 8.13c-19.28 2.89-38.37 4.37-55.14 3.52-12.78-2.8-20.1-9.35-20.98-19.95 4.17-12.99 12.73-29.01 23.19-46.83 8.27-16.83 12.59-32.1 11.76-45.04-6.87-10.16-17.75-18.48-30.54-25.72-14.12-6.55-26.13-13.82-34.5-22.28-5.35-9.67-6.01-20.93-2.5-33.32 6.32-13.36 15.4-27.1 26.16-40.44a413.63 413.63 0 0 1 36.15-36.38c12.25-10.23 24.26-18.75 35.9-25.4 11.73-6.08 23.29-10.38 34.64-12.78 11.5-2.07 22.27-2.3 32.19-.94a85.4 85.4 0 0 1 27.07 8.46 109.7 109.7 0 0 1 22.43 14.57c7.64 5.04 15.58 10.47 24.33 15.94a331.5 331.5 0 0 0 36.12 12.36c15.13 2.9 31.08 5.98 46.8 9.71 14.65 4.07 26.89 9.87 35.54 17.96 5.18 9.6 6.32 21.8 3.94 36.26" stroke-dasharray="3 5" opacity=".53"/>
    <path d="M564.18 361.45c-4.37 14.21-9.25 28.66-13.29 42.65-1.5 13-.92 25 1.51 35.88 4.94 9.77 10.4 18.79 15.4 27.13 5.1 7.96 8.18 15.62 8.76 22.87-.85 7.2-4.5 13.87-10.67 19.67-7.59 5.6-17.16 10.06-28.17 13.1a158.82 158.82 0 0 1-37.25 4.02c-13.07-.03-26-1.13-38.38-3.2a302.76 302.76 0 0 1-32.16-5.14 335.55 335.55 0 0 1-23.39-3.26c-6.91-.06-13.69-.18-20.98-.3a1360.1 1360.1 0 0 1-31.35 3.4 762.43 762.43 0 0 1-49.27 5.9c-18.24 1.59-35.6 1.67-50.21-.48-10.6-3.8-15.93-10.78-15.27-21.15 5.12-12.14 14.19-26.82 24.97-43.03 8.78-15.45 14.05-29.78 14.67-42.35-4.94-10.36-13.74-19.24-24.66-27.1-12.68-7.09-23.94-14.48-32.3-22.57-6.06-8.82-7.9-18.75-5.8-29.47 4.77-11.46 12.5-23.22 22.2-34.68a316.4 316.4 0 0 1 34.73-31.51c12.27-8.92 24.4-16.35 36.15-22.02 11.84-5.17 23.37-8.64 34.46-10.29 11.23-1.3 21.53-.89 30.9 1.05a86.72 86.72 0 0 1 25.65 9.7c7.92 4.17 15.3 9.22 22.47 14.86a685.98 685.98 0 0 0 26.1 15.72 497.46 497.46 0 0 0 37.5 13.02c14.97 3.56 30.34 7.48 45.1 12.1 13.43 5 24.32 11.58 31.62 20.1 4.02 9.73 4.17 21.6.96 35.37" stroke-dasharray="3 4" opacity=".55"/>
    <path d="M559.2 375.1c-5.05 13.33-10.69 26.82-15.69 39.91-2.73 12.34-3.6 23.84-2.74 34.3 3.35 9.56 7.4 18.28 11.33 26.2 4.42 7.45 7.27 14.35 8.08 20.61-.22 6.08-2.92 11.46-7.95 15.93-6.23 4.22-14.41 7.36-24.05 9.22-10.34 1.62-21.6 2-33.28 1.1a231.62 231.62 0 0 1-35.16-5.1 334.09 334.09 0 0 1-30.53-6.57c-8.87-1.42-16.9-2.9-24.4-4.34-7.81-.38-15.84-.73-24.63-1-10.05.75-21.7 1.52-35.22 2.28a685.07 685.07 0 0 1-49.03 3.07c-16.88.3-32.34-.9-44.72-4.14-8.5-4.55-11.96-11.77-9.94-21.71 5.9-11.27 15.31-24.59 26.3-39.24 9.14-14.07 15.23-27.38 17.18-39.42-3.12-10.35-9.89-19.52-18.88-27.8-11.06-7.52-21.32-15.07-29.38-22.9-6.43-8.2-9.22-17.07-8.41-26.42 3.2-9.83 9.39-19.84 17.77-29.54a232.64 232.64 0 0 1 32-26.65 214.86 214.86 0 0 1 35.18-18.41c11.65-4.2 22.95-6.83 33.74-7.76 10.9-.6 20.81.38 29.77 2.74 9.1 2.4 17.36 6 24.9 10.56a209.07 209.07 0 0 1 23.12 14.94 705.07 705.07 0 0 0 27.95 15.66 821.62 821.62 0 0 0 38.25 14.04c14.55 4.28 29.13 9 42.75 14.46 12.1 5.81 21.58 12.99 27.54 21.78 2.88 9.74 2.1 21.2-1.86 34.2" stroke-dasharray="4 3" opacity=".57"/>
    <path d="M553.1 387.57c-5.63 12.41-11.91 24.88-17.72 36.99-3.84 11.56-6.05 22.4-6.64 32.34a157.38 157.38 0 0 0 7.2 25c4.81 10.12 6.2 26.1 1.3 31.67-4.92 3.12-11.69 5.19-19.9 6.07-8.84.68-18.66.24-29.04-1.3a235.56 235.56 0 0 1-31.88-6.7 420.85 420.85 0 0 1-29.13-7.76c-8.89-1.83-17.32-3.66-25.59-5.38-8.68-.76-17.83-1.47-27.89-2.09-11.16.22-23.76.4-37.87.45-15.11.56-31.21.62-47.42-.1-15.25-.9-28.66-3.22-38.83-7.3-6.48-5.08-8.25-12.32-5.06-21.75 6.5-10.32 16.14-22.33 27.19-35.46 9.39-12.7 16.13-24.96 19.27-36.31-1.44-10.12-6.25-19.36-13.31-27.85-9.3-7.8-18.35-15.44-25.83-23.1-6.48-7.76-9.93-15.82-10.2-24.06 1.75-8.49 6.39-17 13.3-25.14a163.24 163.24 0 0 1 28.32-22.1 183.65 183.65 0 0 1 33.14-14.8c11.17-3.22 22.06-5.01 32.47-5.27a98.35 98.35 0 0 1 28.78 4.22 110.45 110.45 0 0 1 24.65 11.18c8.06 4.43 16.03 9.5 24.16 15a949.3 949.3 0 0 0 29.55 15.89c11.91 4.93 24.77 10.02 38.28 15.28 13.88 4.98 27.44 10.46 39.76 16.63 10.7 6.48 18.73 14.1 23.37 23.02 1.8 9.6.18 20.58-4.43 32.73" stroke-dasharray="3 1" opacity=".6"/>
    <path d="M546.01 398.74c-6.1 11.46-12.9 22.88-19.4 33.94-4.77 10.7-8.17 20.76-10.1 30.03.3 8.69 1.55 16.57 3.15 23.56 4.31 16.37-5.1 30.61-14.67 31.36-7.34-.04-15.74-1.11-24.84-3.16a252.36 252.36 0 0 1-28.63-7.95 613.69 613.69 0 0 1-27.88-8.76c-8.9-2.22-17.73-4.4-26.7-6.46a1091.5 1091.5 0 0 0-30.4-3.6 2059 2059 0 0 1-39.1-1.87 499.26 499.26 0 0 1-44.53-3.29c-13.42-2-24.72-5.23-32.72-9.92-4.6-5.4-4.88-12.5-.71-21.29 6.95-9.38 16.67-20.1 27.66-31.77 9.51-11.38 16.78-22.52 20.93-33.08.08-9.7-2.88-18.79-8.05-27.28-7.52-7.9-15.15-15.58-21.8-23.06-6.2-7.43-9.98-14.86-11.05-22.23.52-7.43 3.7-14.69 9.13-21.52 6.66-6.74 14.89-12.84 24.1-18.05 9.76-4.92 19.98-8.79 30.27-11.42a122.55 122.55 0 0 1 30.72-2.91c10.03.65 19.29 2.55 27.81 5.54a135.14 135.14 0 0 1 24.7 11.7c8.3 4.55 16.65 9.67 25.3 15.18 9.5 5.19 19.71 10.68 30.7 16.36 11.93 5.32 24.54 10.86 37.48 16.66 12.97 5.64 25.32 11.77 36.23 18.5 9.21 7 15.82 14.9 19.18 23.78.78 9.37-1.61 19.76-6.78 31.01" stroke-dasharray="2 5" opacity=".62"/>
    <path d="M538.1 408.56c-6.47 10.45-13.66 20.79-20.67 30.76-5.57 9.75-9.99 18.95-13.1 27.43a111.6 111.6 0 0 0-.76 21.85c2.66 14.84-4.64 26.43-12.43 26.36-5.99-.57-13.05-2.07-20.95-4.5-7.99-2.3-16.57-5.28-25.56-8.84-8.91-3.07-17.8-6.33-26.65-9.62-8.88-2.6-17.99-5.18-27.45-7.67-9.85-1.8-20.46-3.58-31.9-5.39-12.1-1.25-25.13-2.7-38.85-4.44a399.12 399.12 0 0 1-40.56-6.3c-11.46-2.89-20.62-6.8-26.56-11.88-2.89-5.53-1.87-12.34 3.08-20.43 7.26-8.43 16.92-17.91 27.75-28.2 9.52-10.1 17.16-20.1 22.14-29.78a48.2 48.2 0 0 0-3.2-26.13c-5.7-7.86-11.82-15.43-17.43-22.7-5.62-7.14-9.4-14.08-10.97-20.75-.4-6.6 1.55-12.86 5.6-18.62 5.12-5.6 11.86-10.54 19.74-14.63 8.42-3.82 17.5-6.68 26.86-8.42a115 115 0 0 1 28.54-.76c9.49 1.2 18.4 3.5 26.8 6.75a168.6 168.6 0 0 1 24.84 12.22c8.5 4.67 17.18 9.89 26.22 15.49a3813.8 3813.8 0 0 0 31.18 17.04 1782.61 1782.61 0 0 1 35.82 18.03c11.86 6.2 22.85 12.86 32.26 20.01 7.72 7.32 12.9 15.33 15.05 24.04-.15 9-3.2 18.74-8.84 29.08" stroke-dasharray="1 2" opacity=".64"/>
    <path d="M529.52 416.92a470.11 470.11 0 0 1-21.56 27.55c-6.2 8.76-11.45 17.01-15.57 24.63-2.97 10.7-3.74 27.81-3.65 33.95-3.29 6.8-20.54 6.47-30.3 2.94a353.84 353.84 0 0 1-22.75-9.44c-8.2-3.31-16.68-6.82-25.37-10.36a934.55 934.55 0 0 0-27.63-8.94c-10-2.4-20.75-4.83-32.23-7.34-11.84-2.08-24.35-4.4-37.15-7.02a306.4 306.4 0 0 1-35.74-8.88c-9.42-3.58-16.51-7.97-20.55-13.23-1.37-5.46.75-11.88 6.3-19.2 7.4-7.51 16.92-15.81 27.46-24.78 9.4-8.85 17.28-17.75 22.93-26.47a47.92 47.92 0 0 0 1.14-24.52c-3.92-7.6-8.49-14.94-12.9-21.93-4.8-6.82-8.26-13.34-10.02-19.44-.48-8.7 9.33-23.02 18.55-28.18a87.65 87.65 0 0 1 23.21-5.89 107 107 0 0 1 26.07 1.11 125.83 125.83 0 0 1 25.63 7.84c8.36 3.58 16.6 7.88 24.83 12.77a738.16 738.16 0 0 1 26.69 15.95c9.79 5.62 20.09 11.6 30.83 17.84a880.2 880.2 0 0 1 33.38 19.21c10.55 6.65 20.07 13.67 27.93 21.06 6.23 7.47 10.06 15.42 11.1 23.82-1 8.55-4.65 17.57-10.63 26.95" stroke-dasharray="5 0" opacity=".67"/>
    <path d="M520.46 423.8a371.91 371.91 0 0 1-22.07 24.35 375.95 375.95 0 0 0-17.49 21.68c-4.6 9.54-8.54 24.8-9.51 30.22-3.4 5.74-17.85 4.3-26.24.6a456.61 456.61 0 0 1-20.24-9.77c-7.54-3.48-15.55-7.19-23.94-11a1025.3 1025.3 0 0 0-27.1-10.18c-9.82-2.96-20.3-6.04-31.3-9.25a953.57 953.57 0 0 1-34.21-9.33c-11.05-3.2-21.39-6.82-30.33-10.91-9.99-6.37-13.42-22.16-5.95-31.67 7.43-6.6 16.66-13.8 26.85-21.52 9.18-7.7 17.15-15.47 23.3-23.2a49.97 49.97 0 0 0 4.91-22.5 162.05 162.05 0 0 0-8.42-20.76c-5.22-9.5-9.33-25.98-7.12-32.62 4.68-5.61 21.07-12.52 31.68-13.52 7.4-.08 15.26.78 23.43 2.68 8.18 2.1 16.28 5.07 24.27 8.8 8.08 3.81 16.21 8.3 24.46 13.34a802.83 802.83 0 0 1 26.5 16.47 1856.1 1856.1 0 0 1 29.6 18.57 587.9 587.9 0 0 1 30.23 20.13c9.1 6.92 17.09 14.12 23.4 21.57 4.8 7.45 7.35 15.18 7.36 23.15-1.75 8-5.86 16.25-12.07 24.67" stroke-dasharray="3 4" opacity=".69"/>
    <path d="M511.07 429.19a300.14 300.14 0 0 1-22.2 21.19 812.9 812.9 0 0 0-18.85 18.69c-5.95 8.28-12.81 21.56-14.92 26.2-4.14 4.79-16.94 2.65-24.22-1.12-5.16-2.69-11.19-6-18.07-9.9-6.9-3.58-14.36-7.45-22.31-11.48-8.05-3.63-16.67-7.4-25.8-11.28-9.28-3.49-19.09-7.14-29.23-10.94a629.62 629.62 0 0 1-30.23-11.2c-9.32-3.77-17.72-7.87-24.65-12.3-7.18-6.63-6.77-21.66 1.28-30.12 7.32-5.73 16.2-11.89 25.92-18.46 8.88-6.6 16.8-13.3 23.26-20.03 4.32-6.78 6.94-13.53 8.07-20.17A107.83 107.83 0 0 0 335 319.1c-3.69-8.84-7.1-23.85-5.62-29.65 3.38-4.78 16.53-9.98 25.56-10.22a90.35 90.35 0 0 1 20.78 3.9c7.44 2.44 15 5.68 22.63 9.6a305.64 305.64 0 0 1 23.59 13.86 772.72 772.72 0 0 1 25.56 16.95c9 6.03 18.23 12.45 27.52 19.13a413.97 413.97 0 0 1 26.48 20.61c7.62 7.02 14.05 14.24 18.85 21.56 3.43 7.26 4.8 14.64 3.92 22.07-2.38 7.37-6.85 14.82-13.19 22.27" stroke-dasharray="0 4" opacity=".71"/>
    <path d="M501.52 433.1a246.68 246.68 0 0 1-21.94 18.12c-7.03 5.67-13.66 10.92-19.65 15.72-7.01 6.99-16.42 18.13-19.66 21.99-5.31 3.81-17.46 1.12-23.93-2.63a620.89 620.89 0 0 1-16.2-9.85c-6.26-3.65-13.1-7.62-20.46-11.8-7.43-3.86-15.38-7.93-23.76-12.14-8.44-3.9-17.24-7.98-26.17-12.21a421.55 421.55 0 0 1-25.57-12.48c-7.5-4.12-13.98-8.47-18.99-12.99-4.63-6.6-1.04-20.56 7.32-27.94a464.52 464.52 0 0 1 24.73-15.64 216.43 216.43 0 0 0 22.85-16.99c4.86-5.87 8.35-11.79 10.58-17.63.49-8.83-2.27-25.24-3.57-32.36 1.13-10.94 13.58-19.41 21.2-19.08 5.4.72 11.5 2.31 18.19 4.83a166.85 166.85 0 0 1 20.74 10.2 336.47 336.47 0 0 1 22.16 14.23c7.7 5.3 15.68 11.09 23.82 17.25 8.21 6.13 16.51 12.63 24.7 19.36a301.98 301.98 0 0 1 22.34 20.63c6.1 6.93 11 13.96 14.4 21 2.16 6.9 2.5 13.8.85 20.6-2.9 6.7-7.62 13.32-13.98 19.8" stroke-dasharray="1 2" opacity=".74"/>
    <path d="M491.99 435.57c-13.52 10.96-28.1 20.36-41.25 28.04-9.73 7.97-17.34 14.04-23.49 17.64-3.8 3.54-8.26 4.23-14.37 1.78-5.64-2.48-13.9-7.74-25.08-15.62-11.3-7.05-24.79-15.47-39.5-24.55-14.72-8.01-29.8-16.84-42.98-26.04-10.71-8.25-16.4-16.98-14.8-25.8 6.27-8.02 19.27-16.5 36.62-25.56 15.03-9.4 26.95-19.28 34.49-29.12 2.09-10.44 2.22-20.23 2.62-28.3-.7-7.75 1.54-13.1 7.22-15.36 6.03-1.55 15.2.12 27.06 5.35 11.77 5.78 24.92 14.38 38.8 24.93a547.35 547.35 0 0 1 42.65 36.42c12.81 13.06 23 26.7 28.2 40.03 1.05 12.69-4.4 24.93-16.2 36.16" stroke-dasharray="2 3" opacity=".76"/>
    <path d="M482.61 436.65c-12.99 9.15-27.03 16.68-40.06 22.58-10.42 6.26-19.08 10.85-26.25 13.32-5.08 2.6-10.28 2.72-16.42.08-5.63-2.56-13.21-7.7-23.14-15.35a1593.65 1593.65 0 0 1-34.17-24.48c-12.25-8.2-24.18-17.1-33.84-26.15-7.42-8.09-10.2-16.26-6.77-24.09 6.9-7.02 19.32-14.11 35.35-21.42 14.15-7.7 26.08-15.75 34.58-23.8 4.04-8.8 6.22-17.08 8.1-23.83 1.68-8.89 16.87-12.64 31.08-6.18 10.22 5.9 21.83 14.46 34.06 24.84a403.51 403.51 0 0 1 35.85 35.35c10.02 12.46 17.3 25.25 20.06 37.45-.67 11.48-6.89 22.23-18.43 31.68" stroke-dasharray="1 1" opacity=".79"/>
    <path d="M473.52 436.44c-12.25 7.45-25.51 13.26-38.06 17.55-10.68 4.66-19.95 7.81-27.82 9.18-6.15 1.61-12.05 1.13-18.29-1.73-5.76-2.7-12.81-7.71-21.5-15.03a549.12 549.12 0 0 1-28.53-23.72c-9.7-8.02-18.54-16.6-24.93-25.07-4.56-7.57-4.98-14.95-.24-21.71 7.19-6 18.83-11.81 33.43-17.56 13.13-6.15 24.74-12.5 33.75-18.82 5.5-7.11 9.35-13.76 12.56-19.13 3.2-7.2 17.18-9.15 29.33-2.51 8.71 5.84 18.6 14.15 28.9 24.1a289.23 289.23 0 0 1 28.6 33.3c7.3 11.55 11.96 23.2 12.64 34.05-2.06 10.13-8.75 19.34-19.84 27.1" stroke-dasharray="1 4" opacity=".81"/>
    <path d="M464.86 435.02a159.52 159.52 0 0 1-35.38 13.05c-10.51 3.2-19.96 5.04-28.15 5.39a35.89 35.89 0 0 1-19.57-3.54c-5.87-2.88-12.44-7.74-19.88-14.62a265.16 265.16 0 0 1-22.93-22.26c-7.24-7.54-13.23-15.41-16.83-23.01-2.17-6.82-.8-13.22 4.72-18.88 7.16-5.02 17.84-9.67 30.95-14.08 11.96-4.76 22.96-9.55 32.06-14.23 9-7.96 20.48-19.83 26.74-21.28 4.26.02 10.07 2.55 17.46 7.88 7.3 5.64 15.4 13.47 23.59 22.71a200.7 200.7 0 0 1 21.37 30.38c4.84 10.34 7.23 20.59 6.23 29.94-3.1 8.69-9.96 16.37-20.38 22.55" stroke-dasharray="0 2" opacity=".83"/>
    <path d="M456.7 432.52a131.7 131.7 0 0 1-32.07 9.13c-9.96 1.92-19.14 2.65-27.25 2.12a45.86 45.86 0 0 1-19.98-5.16c-5.86-3.05-11.89-7.73-18.13-14.05a144.95 144.95 0 0 1-17.6-20.21c-5.04-6.78-8.61-13.71-9.96-20.23-.36-5.89 2.24-11.26 8.06-15.83 6.85-4.1 16.45-7.74 27.98-10.96a1148.4 1148.4 0 0 0 29.61-10.19c9.81-5.62 23.59-13.5 30.03-13.83 4.16.55 9.24 3.22 15.3 8.28 5.99 5.3 12.31 12.43 18.44 20.7a134.6 134.6 0 0 1 14.65 26.7c2.72 8.92 3.26 17.62 1.02 25.39-3.77 7.2-10.53 13.4-20.1 18.14" stroke-dasharray="3 4" opacity=".86"/>
    <path d="M449.13 429.06a108.15 108.15 0 0 1-28.23 5.84c-9.05.88-17.59.7-25.22-.5a53.76 53.76 0 0 1-19.34-6.4c-5.62-3.14-11.02-7.55-16.08-13.2a82.64 82.64 0 0 1-12.86-17.7c-4.03-8.76-2.04-24.07 5.3-29.81 6.3-3.25 14.68-6 24.6-8.24a909.3 909.3 0 0 1 26.5-6.72c9.9-3.54 24.85-7.76 31.32-7.04 4.05 1.04 8.5 3.79 13.36 8.44 4.77 4.83 9.47 11.1 13.69 18.2a87.5 87.5 0 0 1 8.82 22.47c1.03 7.38.2 14.46-2.84 20.66-4.08 5.74-10.47 10.52-19.02 14" stroke-dasharray="4 2" opacity=".88"/>
    <path d="M442.22 424.76c-15.56 4.33-32.3 4.27-46.18.9-12.62-2.78-23.49-9.19-31.34-19.1-8.14-9.32-11.84-19.82-9.66-28.54 3.57-7.46 14.55-13 31.24-15.85 15.09-3.7 29.32-6.04 40.27-6.45 8.65-1.28 16.8 1.36 24.38 9.5 7.35 8.62 12.67 21.08 13.79 33.34-.87 11.4-8.32 21.14-22.5 26.2" stroke-dasharray="2 3" opacity=".91"/>
    <path d="M436 419.76a77.14 77.14 0 0 1-37.8-2.05c-10.95-3.3-20.17-9.29-26-17.42-6.02-7.8-7.5-15.91-4.23-22.33 3.91-5.7 13.24-9.72 26.57-11.34 12.34-2.22 24.47-2.84 34.14-1.82 8.3.41 15.65 3.68 21.26 10.62a37.19 37.19 0 0 1 7.14 25.82c-2.14 8.45-9.29 15.37-21.08 18.52" stroke-dasharray="3 1" opacity=".93"/>
    <path d="M430.49 414.17c-19.35 2.6-40.49-5.41-48.38-18.02-8.38-11.86-.16-22.46 19.84-23.88 17.93-2.84 35.8.66 43.67 11.5 7.43 11.5 2.3 26.5-15.13 30.4" stroke-dasharray="2 3" opacity=".95"/>
    <path d="M425.67 408.13c-12.7-20.97 14.74-5.88 0 0" stroke-dasharray="3 0" opacity=".98"/>
  </g>
</svg>
